<svg id="Iconly_Two-tone_More_Circle" data-name="Iconly/Two-tone/More Circle" xmlns="http://www.w3.org/2000/svg" width="18" height="18" viewBox="0 0 18 18">
  <g id="More_Circle" data-name="More Circle">
    <path id="Stroke_1" data-name="Stroke 1" d="M9,0A9,9,0,1,1,0,9,9,9,0,0,1,9,0Z" fill="rgba(22,78,226,0.1)" opacity="0"/>
    <path id="Fill_3" data-name="Fill 3" d="M1.166,2.33A1.165,1.165,0,1,1,2.331,1.166,1.166,1.166,0,0,1,1.166,2.33" transform="translate(3.476 7.835)" fill="#222b45"/>
    <path id="Fill_5" data-name="Fill 5" d="M1.166,2.33A1.165,1.165,0,1,1,2.331,1.166,1.166,1.166,0,0,1,1.166,2.33" transform="translate(7.834 7.835)" fill="#222b45"/>
    <path id="Fill_7" data-name="Fill 7" d="M1.166,2.33A1.165,1.165,0,1,1,2.331,1.166,1.166,1.166,0,0,1,1.166,2.33" transform="translate(12.192 7.835)" fill="#222b45"/>
  </g>
</svg>
