<svg xmlns="http://www.w3.org/2000/svg" width="8.918" height="20.566" viewBox="0 0 8.918 20.566">
  <g id="paper_clip" data-name="paper clip" transform="matrix(0.996, -0.087, 0.087, 0.996, -0.018, 0.614)">
    <path id="Path_77" data-name="Path 77" d="M1.019,2.938a.393.393,0,0,0,0-.065A1.86,1.86,0,0,1,2.766.9,1.91,1.91,0,0,1,4.532,2.893h0L5.539,2.9h0A2.85,2.85,0,0,0,2.761.015,2.774,2.774,0,0,0,.017,2.868a.4.4,0,0,0,.006.065A.393.393,0,0,0,.018,3L.1,16.881A3.411,3.411,0,0,0,3.677,20.03a3.319,3.319,0,0,0,3.54-3.11L7.152,5.884a.483.483,0,0,0-.506-.445.469.469,0,0,0-.5.44l.065,11.037a2.38,2.38,0,0,1-2.539,2.23,2.445,2.445,0,0,1-2.565-2.258L1.024,3A.4.4,0,0,0,1.019,2.938Z" transform="translate(0 0)" fill="#345188"/>
  </g>
</svg>
